<svg xmlns="http://www.w3.org/2000/svg" width="21.324" height="20.075" viewBox="0 0 21.324 20.075">
  <g id="dashboard" transform="translate(-3.495 -17.989)">
    <path id="Path_104" data-name="Path 104" d="M26.047,24.26v2.508L24.824,26,16.014,20.5,7.228,25.991l-1.248.778V24.26l10.034-6.271Z" transform="translate(-1.857)" fill="#ffd200"/>
    <path id="Path_105" data-name="Path 105" d="M25.566,27.495l-.019.031v11.4H19.277V30.148H14.26v8.779H7.989V27.514l-.019-.031,8.786-5.493Z" transform="translate(-2.599 -1.492)" fill="#fff"/>
    <path id="Path_109" data-name="Path 109" d="M26.29,24.826a.635.635,0,0,0-.025-.124.616.616,0,0,0-.049-.11.51.51,0,0,0-.065-.1.578.578,0,0,0-.094-.09c-.018-.014-.029-.034-.048-.046L15.974,18.087c-.025-.015-.053-.018-.079-.03a.648.648,0,0,0-.135-.051,1.868,1.868,0,0,0-.237,0,.656.656,0,0,0-.134.051.532.532,0,0,0-.08.03L5.274,24.362c-.019.013-.031.032-.048.046a.579.579,0,0,0-.094.09.593.593,0,0,0-.065.1.574.574,0,0,0-.049.11.626.626,0,0,0-.025.124.6.6,0,0,0-.013.067v1.882c0,.017.009.031.01.048a.58.58,0,0,0,.024.122.57.57,0,0,0,.045.119c.008.014.008.031.016.045a.6.6,0,0,0,.073.09c.008.009.013.018.022.026a.621.621,0,0,0,.174.118c.014.007.03.012.045.018A.636.636,0,0,0,5.6,27.4h0a.629.629,0,0,0,.214-.043.514.514,0,0,0,.06-.026.523.523,0,0,0,.058-.026l9.7-6.067,9.7,6.067a.523.523,0,0,0,.058.026.514.514,0,0,0,.06.026.626.626,0,0,0,.214.043h0a.639.639,0,0,0,.216-.043l.046-.018a.6.6,0,0,0,.173-.118c.009-.008.014-.018.022-.026a.6.6,0,0,0,.073-.09.415.415,0,0,0,.016-.044.793.793,0,0,0,.069-.24c0-.016.01-.031.01-.048V24.894A.588.588,0,0,0,26.29,24.826Z" transform="translate(-1.484 -0.005)" fill="#ffd200"/>
    <path id="Path_110" data-name="Path 110" d="M22.644,34a.629.629,0,0,1,.627.627v8.153a.629.629,0,0,1-.627.627H17.626A.629.629,0,0,1,17,42.778V34.625A.629.629,0,0,1,17.626,34Z" transform="translate(-5.966 -5.97)" fill="#ffd200"/>
    <path id="Path_111" data-name="Path 111" d="M19.652,41.256A.627.627,0,0,1,19.645,40h.007a.627.627,0,1,1,0,1.254Z" transform="translate(-6.72 -8.209)" fill="#fcf2e7"/>
    <path id="Path_112" data-name="Path 112" d="M25.676,49.256H5.606a.627.627,0,1,1,0-1.254h20.07a.627.627,0,0,1,0,1.254Z" transform="translate(-1.484 -11.192)" fill="#ffe777"/>
  </g>
</svg>
