<svg xmlns="http://www.w3.org/2000/svg" width="29.47" height="24.225" viewBox="0 0 29.47 24.225">
  <g id="reward_icon" data-name="reward icon" transform="translate(0 -0.001)">
    <g id="Group_82" data-name="Group 82" transform="translate(0 1.745)">
      <path id="Path_27" data-name="Path 27" d="M35.816,37.035a16.3,16.3,0,0,1,1.929-1.8.109.109,0,0,1,.172.113,8.771,8.771,0,0,1-2.12,3.9,14.4,14.4,0,0,1,.019-2.215Zm0,0" transform="translate(-33.992 -35.213)" fill="#fcdf6c"/>
      <path id="Path_28" data-name="Path 28" d="M1.8,71.473a16.31,16.31,0,0,1-1.6-2.3.108.108,0,0,0-.2.048c-.085,1.672.554,3.629,2.111,4.418A14.469,14.469,0,0,1,1.8,71.473Zm0,0" transform="translate(0 -67.435)" fill="#fcdf6c"/>
      <path id="Path_29" data-name="Path 29" d="M42.758,116.827a15.7,15.7,0,0,1,1.309-2.222.108.108,0,0,1,.2.057,8.224,8.224,0,0,1-.879,4.24,14.578,14.578,0,0,1-.627-2.074Zm0,0" transform="translate(-40.64 -110.628)" fill="#fcdf6c"/>
      <path id="Path_30" data-name="Path 30" d="M9.813,169.455a16.929,16.929,0,0,1-2.2-1.68.108.108,0,0,0-.177.107,4.6,4.6,0,0,0,3.295,3.526,14.641,14.641,0,0,1-.922-1.953Zm0,0" transform="translate(-7.068 -161.181)" fill="#fcdf6c"/>
      <path id="Path_31" data-name="Path 31" d="M74.016,192.46a15.415,15.415,0,0,1,.61-2.489.108.108,0,0,1,.2,0,8.164,8.164,0,0,1,.385,4.289A14.622,14.622,0,0,1,74.016,192.46Zm0,0" transform="translate(-70.349 -182.234)" fill="#fcdf6c"/>
      <path id="Path_32" data-name="Path 32" d="M45.684,259.28a17.243,17.243,0,0,1-2.584-.962.108.108,0,0,0-.138.154,4.61,4.61,0,0,0,4.18,2.416A14.518,14.518,0,0,1,45.684,259.28Zm0,0" transform="translate(-40.818 -247.256)" fill="#fcdf6c"/>
      <path id="Path_33" data-name="Path 33" d="M124.662,259.078a15.1,15.1,0,0,1-.15-2.569.109.109,0,0,1,.2-.062,8.465,8.465,0,0,1,1.654,4.016A14.44,14.44,0,0,1,124.662,259.078Zm0,0" transform="translate(-118.338 -245.447)" fill="#fcdf6c"/>
    </g>
    <path id="Path_34" data-name="Path 34" d="M434.782,37.035a16.3,16.3,0,0,0-1.929-1.8.109.109,0,0,0-.172.113,8.77,8.77,0,0,0,2.12,3.9,14.4,14.4,0,0,0-.019-2.215Zm0,0" transform="translate(-407.136 -33.468)" fill="#f4b425"/>
    <path id="Path_35" data-name="Path 35" d="M469.552,71.473a16.307,16.307,0,0,0,1.6-2.3.108.108,0,0,1,.2.048c.085,1.672-.554,3.629-2.111,4.418A14.441,14.441,0,0,0,469.552,71.473Zm0,0" transform="translate(-441.888 -64.982)" fill="#f4b425"/>
    <path id="Path_36" data-name="Path 36" d="M440.186,116.827a15.684,15.684,0,0,0-1.309-2.222.108.108,0,0,0-.2.057,8.228,8.228,0,0,0,.879,4.24,14.576,14.576,0,0,0,.627-2.074Zm0,0" transform="translate(-412.835 -107.722)" fill="#f4b425"/>
    <path id="Path_37" data-name="Path 37" d="M438.9,169.455a16.928,16.928,0,0,0,2.2-1.68.108.108,0,0,1,.177.107,4.6,4.6,0,0,1-3.295,3.526,14.643,14.643,0,0,0,.922-1.953Zm0,0" transform="translate(-412.178 -157.804)" fill="#f4b425"/>
    <path id="Path_38" data-name="Path 38" d="M412.372,192.46a15.415,15.415,0,0,0-.61-2.489.108.108,0,0,0-.2,0,8.164,8.164,0,0,0-.385,4.289A14.6,14.6,0,0,0,412.372,192.46Zm0,0" transform="translate(-386.569 -178.563)" fill="#f4b425"/>
    <path id="Path_39" data-name="Path 39" d="M385.794,259.28a17.236,17.236,0,0,0,2.584-.962.108.108,0,0,1,.138.154,4.61,4.61,0,0,1-4.18,2.416A14.516,14.516,0,0,0,385.794,259.28Zm0,0" transform="translate(-361.19 -243.143)" fill="#f4b425"/>
    <path id="Path_40" data-name="Path 40" d="M351.746,259.078a15.107,15.107,0,0,0,.15-2.569.109.109,0,0,0-.2-.062,8.465,8.465,0,0,0-1.654,4.016A14.44,14.44,0,0,0,351.746,259.078Zm0,0" transform="translate(-329.678 -241.148)" fill="#f4b425"/>
    <path id="Path_41" data-name="Path 41" d="M348.188,368.588h-3.715a.324.324,0,0,1-.324-.324v-2.4h4.039a.224.224,0,0,1,.146.395l-.93.8a.224.224,0,0,0,0,.34l.93.8A.224.224,0,0,1,348.188,368.588Zm0,0" transform="translate(-323.783 -344.363)" fill="#d82665"/>
    <path id="Path_42" data-name="Path 42" d="M82,368.588h3.715a.324.324,0,0,0,.324-.324v-2.4H82a.224.224,0,0,0-.146.395l.93.8a.224.224,0,0,1,0,.34l-.93.8A.224.224,0,0,0,82,368.588Zm0,0" transform="translate(-76.937 -344.363)" fill="#d82665"/>
    <path id="Path_43" data-name="Path 43" d="M137.824,18.265l1.38,3.671,3.918.178a.467.467,0,0,1,.27.832l-3.065,2.447,1.041,3.781a.467.467,0,0,1-.707.514l-3.275-2.159-3.275,2.159a.467.467,0,0,1-.707-.514l1.041-3.781-3.065-2.447a.467.467,0,0,1,.27-.832l3.918-.178,1.38-3.671a.467.467,0,0,1,.874,0Zm0,0" transform="translate(-122.652 -17.072)" fill="#fcdf6c"/>
    <path id="Path_44" data-name="Path 44" d="M267.245,100.073l-1.955-.089-3.493,2.789.977,3.548,2.011,1.325a.467.467,0,0,0,.707-.514l-1.041-3.781,3.065-2.447A.467.467,0,0,0,267.245,100.073Zm0,0" transform="translate(-246.093 -93.755)" fill="#f4b425"/>
    <path id="Path_45" data-name="Path 45" d="M34.9,16.449A14.1,14.1,0,0,1,33.244,15.1h0a14.232,14.232,0,0,1-1.42-1.566h0a14.326,14.326,0,0,1-1.168-1.75h0a14.324,14.324,0,0,1-.9-1.9h0a14.25,14.25,0,0,1-.61-2.018h0a14.144,14.144,0,0,1-.3-2.1v0A14.06,14.06,0,0,1,28.86,3.6c0-.012,0-.024,0-.036a15.009,15.009,0,0,1,.57-3.074A.383.383,0,0,0,28.7.275a15.77,15.77,0,0,0-.6,3.277q0,.012,0,.024a14.91,14.91,0,0,0-.016,2.231h0A14.9,14.9,0,0,0,28.4,8.025h0a15.007,15.007,0,0,0,.643,2.129v0a15.086,15.086,0,0,0,.944,2h0A15.1,15.1,0,0,0,31.217,14h0a15.014,15.014,0,0,0,1.5,1.65h0a14.866,14.866,0,0,0,1.743,1.422.383.383,0,0,0,.44-.626Zm0,0" transform="translate(-26.655 0)" fill="#f4b425"/>
    <path id="Path_46" data-name="Path 46" d="M349.3,5.806a14.9,14.9,0,0,0-.016-2.23c0-.008,0-.016,0-.024a15.77,15.77,0,0,0-.6-3.277.383.383,0,0,0-.734.217,15.018,15.018,0,0,1,.57,3.073c0,.012,0,.025,0,.037a14.079,14.079,0,0,1,.018,2.154.019.019,0,0,0,0,0,14.164,14.164,0,0,1-.3,2.1h0a14.249,14.249,0,0,1-.61,2.019h0a14.312,14.312,0,0,1-.9,1.9h0a14.309,14.309,0,0,1-1.168,1.75h0a14.229,14.229,0,0,1-1.42,1.566h0a14.131,14.131,0,0,1-1.653,1.347.383.383,0,0,0,.44.626,14.864,14.864,0,0,0,1.743-1.422h0a14.992,14.992,0,0,0,1.5-1.649h0a15.085,15.085,0,0,0,1.23-1.844h0a15.111,15.111,0,0,0,.946-2h0a15.02,15.02,0,0,0,.642-2.128v0a14.909,14.909,0,0,0,.32-2.215v0Zm0,0" transform="translate(-321.257 -0.001)" fill="#fcdf6c"/>
    <path id="Path_47" data-name="Path 47" d="M141.479,341.08H129.637a.356.356,0,0,1-.356-.356v-2.012a.356.356,0,0,1,.356-.356h11.842a.356.356,0,0,1,.356.356v2.012A.356.356,0,0,1,141.479,341.08Zm0,0" transform="translate(-120.824 -318.218)" fill="#fc477e"/>
  </g>
</svg>
