<svg id="setting_Icon" data-name="setting Icon" xmlns="http://www.w3.org/2000/svg" width="29.47" height="29.47" viewBox="0 0 29.47 29.47">
  <path id="Path_85" data-name="Path 85" d="M23.944,29.47H5.526A5.525,5.525,0,0,1,0,23.944V5.526A5.525,5.525,0,0,1,5.526,0H23.944A5.525,5.525,0,0,1,29.47,5.526V23.944A5.525,5.525,0,0,1,23.944,29.47Z" fill="#fcf2e7"/>
  <path id="Path_86" data-name="Path 86" d="M23.309,17.784l0,0-1.025-.942a6.667,6.667,0,0,0,0-1.678l1.028-.945A1.011,1.011,0,0,0,23.5,12.98l-1.131-1.957a1,1,0,0,0-1.171-.454l-1.33.42a6.108,6.108,0,0,0-1.45-.842L18.1,8.781A1,1,0,0,0,17.134,8H14.867a1,1,0,0,0-.971.78l-.309,1.367a6.127,6.127,0,0,0-1.45.842l-1.331-.42a1,1,0,0,0-1.167.451L8.5,12.983a1.011,1.011,0,0,0,.191,1.236l1.025.942A6.668,6.668,0,0,0,9.667,16a6.861,6.861,0,0,0,.053.839l-1.028.945a1.011,1.011,0,0,0-.186,1.236l1.131,1.957a1,1,0,0,0,1.171.455l1.33-.42a6.108,6.108,0,0,0,1.45.842l.308,1.365a1,1,0,0,0,.972.782h2.267a1,1,0,0,0,.971-.78l.309-1.367a6.127,6.127,0,0,0,1.45-.842l1.331.42a1,1,0,0,0,1.167-.452L23.5,19.017a1.013,1.013,0,0,0-.189-1.233ZM16,19.667A3.667,3.667,0,1,1,19.667,16,3.671,3.671,0,0,1,16,19.667Z" transform="translate(-1.265 -1.265)" fill="#fc573b"/>
  <path id="Path_87" data-name="Path 87" d="M17.167,17.833a.663.663,0,0,1-.471-.195l-1.167-1.167A.665.665,0,0,1,15.334,16V14.167a.667.667,0,1,1,1.334,0v1.557l.971.971a.667.667,0,0,1-.472,1.138Z" transform="translate(-1.315 -1.235)" fill="#fd907e"/>
</svg>
